<svg width="22" height="16" viewBox="0 0 22 16" fill="none" xmlns="http://www.w3.org/2000/svg">
<path d="M5.83152 0.70964C6.21153 0.259628 6.77058 0 7.35958 0H20C21.1046 0 22 0.895431 22 2V13.2308C22 14.3353 21.1046 15.2308 20 15.2308H7.35958C6.77058 15.2308 6.21153 14.9711 5.83152 14.5211L1.08964 8.90575C0.460387 8.16058 0.460385 7.07019 1.08964 6.32502L5.83152 0.70964Z" fill="#C4C4C4"/>
<line x1="1" y1="-1" x2="8.32462" y2="-1" transform="matrix(0.687745 0.725953 -0.687745 0.725953 9.30774 5.0769)" stroke="white" stroke-width="2" stroke-linecap="round"/>
<line x1="1" y1="-1" x2="8.32462" y2="-1" transform="matrix(0.687745 -0.725953 0.687745 0.725953 10.5101 11.8462)" stroke="white" stroke-width="2" stroke-linecap="round"/>
</svg>
