<svg width="58" height="22" viewBox="0 0 58 22" fill="none" xmlns="http://www.w3.org/2000/svg">
<line x1="1" y1="-1" x2="23.2747" y2="-1" transform="matrix(0.504404 0.863468 -0.868546 0.495609 0 1.03958)" stroke="white" stroke-width="2" stroke-linecap="round" stroke-linejoin="round"/>
<line x1="1" y1="-1" x2="23.2747" y2="-1" transform="matrix(0.504404 0.863468 -0.868546 0.495609 5.38623 1.02557)" stroke="white" stroke-width="2" stroke-linecap="round" stroke-linejoin="round"/>
<line x1="1" y1="-1" x2="22.8622" y2="-1" transform="matrix(0.506651 0.862151 -0.867267 0.497843 10.9581 1.02557)" stroke="white" stroke-width="2" stroke-linecap="round" stroke-linejoin="round"/>
<line x1="1" y1="-1" x2="23.2747" y2="-1" transform="matrix(0.504404 -0.863468 0.868546 0.495609 45.7557 21.986)" stroke="white" stroke-width="2" stroke-linecap="round" stroke-linejoin="round"/>
<line x1="1" y1="-1" x2="22.2263" y2="-1" transform="matrix(0.504404 -0.863468 0.868546 0.495609 23.9957 21.2876)" stroke="white" stroke-width="2" stroke-linecap="round" stroke-linejoin="round"/>
<line x1="1" y1="-1" x2="16.9563" y2="-1" transform="matrix(0.504405 -0.863467 0.868546 0.495608 43.172 16.5047)" stroke="white" stroke-width="2" stroke-linecap="round" stroke-linejoin="round"/>
<line x1="1" y1="-1" x2="11.7729" y2="-1" transform="matrix(0.504404 -0.863468 0.868546 0.495609 40.5369 12.0329)" stroke="white" stroke-width="2" stroke-linecap="round" stroke-linejoin="round"/>
<line x1="1" y1="-1" x2="16.8005" y2="-1" transform="matrix(0.504404 -0.863468 0.868546 0.495609 21.397 16.4374)" stroke="white" stroke-width="2" stroke-linecap="round" stroke-linejoin="round"/>
<line x1="1" y1="-1" x2="11.6176" y2="-1" transform="matrix(0.504403 -0.863468 0.868545 0.495609 18.5516 11.9659)" stroke="white" stroke-width="2" stroke-linecap="round" stroke-linejoin="round"/>
<line x1="1" y1="-1" x2="22.9893" y2="-1" transform="matrix(0.50164 0.865077 -0.870108 0.492861 32.93 1.23337)" stroke="white" stroke-width="2" stroke-linecap="round" stroke-linejoin="round"/>
<line x1="1" y1="-1" x2="17.0186" y2="-1" transform="matrix(0.504404 0.863468 -0.868546 0.495609 30.278 6.02643)" stroke="white" stroke-width="2" stroke-linecap="round" stroke-linejoin="round"/>
<line x1="1" y1="-1" x2="11.6547" y2="-1" transform="matrix(0.504404 0.863468 -0.868546 0.495609 27.5833 10.68)" stroke="white" stroke-width="2" stroke-linecap="round" stroke-linejoin="round"/>
</svg>
