<?xml version="1.0" standalone="no"?><!DOCTYPE svg PUBLIC "-//W3C//DTD SVG 20010904//EN" "http://www.w3.org/TR/2001/REC-SVG-20010904/DTD/svg10.dtd"> <svg viewBox="0 0 579 220" version="1.1" xmlns="http://www.w3.org/2000/svg" xmlns:xlink="http://www.w3.org/1999/xlink"> <g id="Page-1" stroke="none" stroke-width="1" fill="none" fill-rule="evenodd"> <g id="Logo" transform="translate(-68.000000, -160.000000)" fill="#ffffff"> <g id="w" transform="translate(64.000000, 157.000000)"> <g id="Group"> <path d="M413.283434,109.677456 L428.525642,136.077734 L504.927799,8.10869117 C507.751528,3.223424 513.963729,1.54960786 518.798101,4.37011817 C523.825454,7.30494313 525.444201,13.55171 522.614589,18.4369772 L441.78075,159.036255 L457.653266,186.528259 C457.899314,185.840229 458.213197,185.151094 458.592124,184.467892 L559.965438,8.10161631 C562.783595,3.22311459 568.983536,1.55161646 573.808367,4.36822074 C578.825798,7.29898136 580.44135,13.5370973 577.617323,18.415599 L468.262863,211.065291 C468.095723,211.36599 467.941344,211.588625 467.797675,211.741018 C467.00844,213.626132 465.618142,215.277489 463.711697,216.378175 L462.288303,217.199972 C457.65929,219.872534 451.740194,218.286517 449.067632,213.657504 L345.844752,34.870232 L330.384551,62.1064606 L411.254165,202.176742 C413.926727,206.805755 412.34071,212.724851 407.711697,215.397413 L406.288303,216.21921 C401.65929,218.891772 395.740194,217.305755 393.067632,212.676742 L318.363085,83.2846708 L302.902883,110.520899 L356.754165,203.794056 C359.426727,208.423069 357.84071,214.342165 353.211697,217.014727 L351.788303,217.836524 C347.15929,220.509086 341.240194,218.923069 338.567632,214.294056 L290.881417,131.69911 L246.570149,209.762247 C246.001675,212.315817 244.405876,214.632091 241.961697,216.043239 L240.538303,216.865036 C235.90929,219.537598 229.990194,217.951581 227.317632,213.322568 L113.495835,16.1774325 C110.823273,11.5484193 112.40929,5.62932304 117.038303,2.95676102 L118.461697,2.13496425 C123.09071,-0.537597777 129.009806,1.04841928 131.682368,5.67743249 L179.70935,88.8626041 L225.999203,9.11278264 C228.81236,4.22360294 235.001304,2.54844626 239.817576,5.37121548 C244.826107,8.3083909 246.438794,14.5601607 243.619775,19.4493404 L191.792173,109.790668 L206.552941,135.357069 L281.927799,9.10869117 C284.751528,4.223424 290.963729,2.54960786 295.798101,5.37011817 C300.825454,8.30494313 302.444201,14.55171 299.614589,19.4369772 L219.788985,158.282569 L235.539589,185.563415 C235.556959,185.531562 235.574471,185.499721 235.592124,185.467892 L336.965438,9.10161631 C339.783595,4.22311459 345.983536,2.55161646 350.808367,5.36822074 C351.790718,5.94202778 352.642666,6.64261515 353.356422,7.43495678 C354.373682,8.19658233 355.25676,9.1723079 355.932368,10.342496 L401.197625,88.7442209 L447.999203,8.11278264 C450.81236,3.22360294 457.001304,1.54844626 461.817576,4.37121548 C466.826107,7.3083909 468.438794,13.5601607 465.619775,18.4493404 L413.283434,109.677456 Z M61.7883031,5.75579912 L63.2116969,4.93400235 C67.8407101,2.26144033 73.7598063,3.84745739 76.4323684,8.4764706 L188.754165,203.023529 C191.426727,207.652543 189.84071,213.571639 185.211697,216.244201 L183.788303,217.065998 C179.15929,219.73856 173.240194,218.152543 170.567632,213.523529 L58.2458349,18.9764706 C55.5732729,14.3474574 57.1592899,8.42836115 61.7883031,5.75579912 Z M5.03830312,3.95676102 L6.46169688,3.13496425 C11.0907101,0.462402223 17.0098063,2.04841928 19.6823684,6.67743249 L133.504165,203.822568 C136.176727,208.451581 134.59071,214.370677 129.961697,217.043239 L128.538303,217.865036 C123.90929,220.537598 117.990194,218.951581 115.317632,214.322568 L1.49583488,17.1774325 C-1.17672715,12.5484193 0.409289907,6.62932304 5.03830312,3.95676102 Z" id="Combined-Shape"></path> </g> </g> </g> </g> </svg>