<svg width="27" height="24" viewBox="0 0 27 24" fill="none" xmlns="http://www.w3.org/2000/svg">
<path d="M12 14.3333C12.7072 14.3333 13.3855 14.0524 13.8856 13.5523C14.3857 13.0522 14.6667 12.3739 14.6667 11.6667C14.6667 10.9594 14.3857 10.2811 13.8856 9.78105C13.3855 9.28095 12.7072 9 12 9C11.9583 9 11.9217 9.01 11.8812 9.01208C12.0098 9.36597 12.0347 9.74916 11.953 10.1167C11.8714 10.4842 11.6866 10.8209 11.4204 11.0871C11.1542 11.3533 10.8176 11.5381 10.45 11.6197C10.0825 11.7013 9.6993 11.6764 9.34541 11.5479C9.34541 11.5896 9.33333 11.6263 9.33333 11.6667C9.33333 12.0169 9.4023 12.3636 9.53632 12.6872C9.67033 13.0107 9.86675 13.3047 10.1144 13.5523C10.6145 14.0524 11.2928 14.3333 12 14.3333ZM23.855 12.3917C21.5954 7.98292 17.1221 5 12 5C6.87791 5 2.40332 7.985 0.144977 12.3921C0.0496614 12.5806 0 12.7889 0 13.0002C0 13.2115 0.0496614 13.4198 0.144977 13.6083C2.40457 18.0171 6.87791 21 12 21C17.1221 21 21.5967 18.015 23.855 13.6079C23.9503 13.4194 24 13.2111 24 12.9998C24 12.7885 23.9503 12.5802 23.855 12.3917ZM12 6.33333C13.0548 6.33333 14.086 6.64613 14.963 7.23216C15.8401 7.8182 16.5237 8.65115 16.9274 9.62569C17.331 10.6002 17.4367 11.6726 17.2309 12.7071C17.0251 13.7417 16.5171 14.692 15.7712 15.4379C15.0254 16.1838 14.0751 16.6917 13.0405 16.8975C12.0059 17.1033 10.9336 16.9977 9.95902 16.594C8.98448 16.1904 8.15152 15.5068 7.56549 14.6297C6.97945 13.7526 6.66666 12.7215 6.66666 11.6667C6.6682 10.2527 7.2306 8.897 8.23046 7.89714C9.23032 6.89728 10.586 6.33488 12 6.33333ZM12 19.6667C7.52666 19.6667 3.43915 17.1121 1.33331 13C2.51766 10.675 4.41168 8.78751 6.74082 7.61125C5.87124 8.73708 5.33332 10.1321 5.33332 11.6667C5.33332 13.4348 6.0357 15.1305 7.28595 16.3807C8.53619 17.631 10.2319 18.3333 12 18.3333C13.7681 18.3333 15.4638 17.631 16.7141 16.3807C17.9643 15.1305 18.6667 13.4348 18.6667 11.6667C18.6667 10.1321 18.1288 8.73708 17.2592 7.61125C19.5883 8.78751 21.4823 10.675 22.6667 13C20.5613 17.1121 16.4733 19.6667 12 19.6667Z" fill="#666666"/>
</svg>
