<?xml version="1.0" standalone="no"?>
<!DOCTYPE svg PUBLIC "-//W3C//DTD SVG 20010904//EN"
 "http://www.w3.org/TR/2001/REC-SVG-20010904/DTD/svg10.dtd">
<svg version="1.0" xmlns="http://www.w3.org/2000/svg"
 width="580.000000pt" height="580.000000pt" viewBox="0 0 580.000000 580.000000"
 preserveAspectRatio="xMidYMid meet">
<metadata>
Created by potrace 1.11, written by Peter Selinger 2001-2013
</metadata>
<g transform="translate(0.000000,580.000000) scale(0.100000,-0.100000)"
fill="#000000" stroke="none">
<path d="M247 3780 c-14 -11 -30 -20 -36 -20 -8 0 -11 -26 -9 -82 2 -60 6 -82
16 -80 6 1 12 -4 12 -12 0 -8 6 -21 13 -28 7 -7 18 -24 25 -38 7 -14 23 -43
37 -65 13 -22 29 -52 36 -67 6 -16 15 -28 20 -28 5 0 9 -6 9 -13 0 -7 16 -36
35 -66 19 -29 35 -57 35 -61 0 -5 6 -15 13 -22 7 -7 18 -24 25 -38 34 -66 46
-86 56 -92 6 -4 7 -8 2 -8 -5 0 -2 -8 6 -17 9 -10 30 -45 48 -78 18 -33 37
-63 42 -66 5 -3 9 -8 8 -10 -4 -8 24 -59 32 -59 4 0 8 -9 8 -20 0 -11 4 -20 9
-20 5 0 14 -13 21 -30 7 -16 17 -30 22 -30 5 0 7 -4 4 -9 -4 -5 -3 -11 1 -13
5 -1 17 -19 27 -38 53 -97 129 -227 142 -241 8 -9 11 -19 7 -23 -4 -4 -3 -10
3 -14 17 -10 94 -140 94 -157 0 -8 4 -15 9 -15 4 0 20 -21 33 -47 63 -118 74
-137 88 -155 8 -10 13 -20 10 -22 -3 -2 2 -11 10 -21 8 -9 19 -25 25 -35 87
-154 93 -160 153 -160 37 0 53 6 76 26 26 25 28 31 24 82 -3 31 -10 58 -16 60
-7 2 -12 8 -12 13 0 8 -68 131 -110 199 -37 60 -100 174 -105 190 -4 11 -11
20 -16 20 -5 0 -9 6 -10 13 0 6 -14 32 -29 57 -16 25 -36 59 -45 75 -14 29
-32 60 -77 133 -11 17 -17 32 -13 32 3 0 -2 9 -12 19 -10 11 -29 42 -43 68
-13 26 -39 72 -57 101 -18 29 -33 59 -33 67 0 8 -4 15 -8 15 -5 0 -16 15 -25
33 -9 17 -32 59 -51 92 -20 33 -43 75 -52 93 -9 17 -20 32 -23 32 -4 0 -8 6
-8 13 0 7 -16 38 -36 70 -20 31 -34 57 -30 57 3 0 -1 8 -9 18 -15 18 -45 68
-99 167 -17 33 -38 67 -45 76 -8 8 -14 20 -14 26 0 10 -41 77 -82 136 -11 16
-65 37 -94 37 -6 0 -23 -9 -37 -20z"/>
<path d="M747 3755 c-20 -20 -37 -46 -39 -58 -4 -22 17 -73 57 -137 12 -19 39
-64 60 -100 22 -36 45 -71 52 -78 7 -7 13 -20 13 -28 0 -8 5 -20 11 -27 5 -7
32 -50 59 -97 27 -47 53 -90 57 -95 4 -6 19 -30 32 -55 39 -74 95 -164 106
-172 5 -4 6 -8 2 -8 -5 0 1 -13 12 -29 12 -16 21 -34 21 -40 0 -6 5 -11 10
-11 6 0 10 -5 10 -11 0 -7 17 -39 38 -73 21 -34 49 -82 62 -108 14 -27 28 -48
32 -48 5 0 8 -5 8 -11 0 -8 57 -109 170 -299 5 -8 41 -71 80 -140 39 -69 75
-132 81 -140 5 -8 15 -27 22 -42 6 -16 15 -28 19 -28 4 0 8 -5 8 -12 0 -15 48
-87 74 -110 25 -24 91 -24 115 0 47 44 52 89 17 153 -33 62 -50 93 -56 99 -6
6 -29 45 -51 88 -10 18 -22 38 -27 45 -5 7 -23 38 -41 70 -83 152 -95 174
-111 197 -10 14 -30 48 -45 75 -15 28 -52 91 -81 141 -30 50 -54 96 -54 102 0
7 -4 12 -9 12 -5 0 -14 12 -20 28 -6 15 -21 43 -32 62 -12 19 -36 60 -52 90
-17 30 -40 71 -52 90 -12 19 -41 71 -65 115 -23 44 -48 87 -54 95 -11 15 -21
32 -62 107 -13 24 -36 64 -51 91 -14 26 -33 61 -41 77 -9 17 -18 32 -22 35
-12 10 -80 140 -72 140 4 0 -13 18 -38 40 -60 54 -103 55 -153 5z"/>
<path d="M1308 3780 c-35 -10 -56 -32 -69 -69 -9 -26 -6 -40 22 -98 18 -37 38
-73 45 -80 7 -7 16 -23 20 -35 3 -12 11 -26 16 -32 10 -11 25 -37 94 -156 20
-36 41 -66 46 -68 4 -2 8 -8 8 -13 0 -5 28 -57 63 -115 98 -166 103 -176 134
-234 15 -30 34 -59 41 -63 6 -4 12 -14 12 -22 0 -7 6 -20 14 -27 7 -8 17 -24
20 -36 4 -12 11 -22 16 -22 5 0 11 -13 15 -30 4 -16 10 -30 15 -30 5 0 12 -10
16 -22 3 -13 12 -30 19 -38 7 -8 25 -37 40 -65 14 -27 35 -63 46 -80 10 -16
26 -43 34 -60 22 -43 39 -69 50 -77 7 -5 7 -8 0 -8 -7 0 -7 -3 0 -8 6 -4 24
-33 40 -64 17 -32 33 -58 37 -58 3 0 11 -12 17 -27 6 -16 15 -35 20 -43 6 -8
45 -76 88 -150 42 -74 86 -143 97 -152 23 -19 62 -23 99 -9 22 9 107 133 107
158 0 6 6 13 14 16 8 3 17 19 21 36 4 17 10 31 14 31 4 0 19 24 34 53 60 114
100 182 108 185 5 2 9 10 9 19 0 8 9 26 20 40 11 14 20 31 20 39 0 7 4 14 8
16 8 3 49 73 89 150 15 28 34 40 49 30 5 -4 20 -29 34 -57 14 -27 30 -56 37
-63 7 -7 16 -24 19 -38 3 -13 10 -24 14 -24 4 0 10 -8 13 -17 4 -10 18 -36 32
-58 14 -22 32 -54 39 -71 8 -17 22 -36 30 -43 9 -7 13 -18 10 -23 -4 -6 -2
-13 3 -17 5 -3 28 -40 51 -81 24 -41 47 -82 52 -90 5 -8 21 -38 36 -66 15 -28
41 -69 59 -90 27 -32 39 -38 73 -40 24 -1 42 3 42 9 0 6 3 8 6 4 8 -7 27 10
42 39 20 38 5 87 -63 201 -37 61 -66 115 -65 119 1 4 -2 10 -7 13 -12 8 -92
144 -92 155 0 5 -3 12 -9 15 -5 3 -20 26 -34 51 -14 25 -43 74 -64 110 -22 36
-46 79 -54 95 -8 17 -19 35 -23 40 -30 39 -75 129 -74 148 2 20 21 60 54 112
7 11 15 27 19 35 4 8 13 22 21 32 8 9 16 24 17 33 6 38 30 35 58 -7 15 -23 25
-45 22 -49 -2 -4 0 -9 4 -11 11 -4 112 -175 112 -188 0 -6 4 -10 9 -10 5 0 11
-8 14 -17 7 -21 51 -100 88 -158 14 -22 32 -55 40 -72 8 -18 17 -33 20 -33 4
0 12 -12 18 -27 6 -16 21 -44 32 -63 12 -19 36 -60 52 -90 17 -30 50 -88 74
-128 24 -41 43 -77 43 -82 0 -5 6 -15 13 -22 7 -7 18 -24 25 -38 19 -37 65
-120 87 -157 37 -60 110 -81 156 -45 23 19 54 102 38 102 -5 0 -9 11 -9 25 0
14 -4 25 -9 25 -5 0 -17 18 -27 40 -10 22 -21 40 -26 40 -4 0 -8 6 -8 13 0 7
-15 35 -33 63 -19 28 -36 57 -40 65 -4 8 -18 32 -32 54 -14 22 -30 51 -37 65
-7 14 -15 27 -18 30 -3 3 -11 16 -18 30 -7 14 -23 43 -37 65 -13 22 -27 47
-31 55 -4 8 -19 33 -33 55 -14 22 -31 49 -37 60 -6 11 -20 36 -32 55 -12 19
-28 49 -37 65 -8 17 -24 44 -35 60 -11 17 -24 40 -29 52 -5 11 -15 24 -21 28
-5 3 -8 11 -5 16 4 5 2 9 -3 9 -5 0 -12 8 -15 18 -3 9 -22 44 -42 77 -19 33
-41 72 -47 88 -7 15 -16 27 -20 27 -4 0 -8 4 -8 10 0 5 -18 37 -39 72 l-40 62
31 58 c17 32 35 58 39 58 5 0 8 3 7 8 -5 14 62 122 76 122 8 0 19 -12 25 -27
11 -29 14 -33 68 -120 18 -29 33 -57 33 -62 0 -5 6 -16 13 -23 7 -7 18 -24 25
-38 7 -14 21 -38 32 -55 11 -16 27 -43 36 -60 39 -75 47 -90 53 -95 6 -5 32
-52 70 -125 9 -16 18 -32 21 -35 3 -3 11 -16 18 -29 8 -13 22 -39 33 -57 10
-19 28 -49 38 -68 11 -18 25 -44 33 -57 7 -13 18 -27 23 -31 7 -5 7 -8 0 -8
-7 0 -7 -3 0 -8 6 -4 21 -27 34 -52 13 -25 31 -53 39 -62 8 -10 12 -18 7 -18
-4 0 -3 -6 3 -12 5 -7 19 -29 30 -49 61 -110 118 -205 125 -210 5 -3 9 -9 9
-12 0 -18 11 -47 18 -47 4 0 10 -8 14 -17 3 -10 22 -48 43 -84 134 -232 131
-229 199 -229 48 0 76 18 88 58 4 12 12 22 17 22 5 0 9 6 9 14 0 7 7 19 15 26
8 7 15 20 15 30 0 9 9 25 20 35 11 10 20 23 20 28 0 5 22 46 48 91 27 45 52
88 55 96 4 8 27 47 52 85 24 39 44 75 45 81 0 6 9 19 20 29 12 10 18 25 16 32
-3 7 -2 13 2 13 5 0 26 31 48 70 21 38 43 70 47 70 5 0 6 4 3 9 -3 4 6 23 19
41 13 18 22 37 19 41 -3 5 -1 9 3 9 5 0 20 21 33 48 14 26 35 61 48 78 12 17
22 34 22 38 0 5 9 21 21 37 11 16 18 29 14 29 -3 0 -1 6 5 12 21 26 59 88 54
88 -4 0 5 15 19 34 15 18 24 36 21 38 -2 3 2 11 11 18 8 7 15 19 15 26 0 8 5
14 12 14 6 0 9 3 5 6 -3 3 -1 11 4 18 17 19 53 80 55 95 2 8 6 17 11 20 9 6
83 129 83 137 0 3 12 21 26 40 15 19 23 34 19 34 -5 0 -2 8 6 18 15 19 35 51
57 95 7 15 18 25 23 22 5 -4 9 28 9 75 0 52 -4 79 -10 75 -6 -3 -13 1 -16 9
-3 9 -10 13 -15 10 -5 -3 -9 0 -9 5 0 6 -20 11 -46 11 -40 0 -51 -5 -80 -36
-19 -19 -34 -42 -34 -50 0 -8 -4 -14 -10 -14 -5 0 -10 -6 -10 -14 0 -7 -7 -19
-15 -26 -9 -7 -13 -15 -11 -18 3 -2 -4 -16 -14 -30 -11 -13 -20 -30 -20 -37 0
-6 -9 -20 -20 -30 -11 -10 -17 -21 -15 -25 3 -4 -2 -13 -10 -20 -8 -7 -15 -18
-15 -25 0 -7 -9 -23 -19 -37 -11 -14 -21 -31 -23 -38 -2 -8 -10 -22 -18 -32
-8 -10 -15 -22 -15 -26 -1 -4 -13 -26 -28 -50 -15 -24 -32 -53 -38 -65 -15
-33 -36 -69 -56 -96 -10 -13 -18 -27 -18 -30 0 -6 -73 -134 -153 -270 -17 -31
-37 -68 -43 -83 -6 -16 -15 -28 -19 -28 -4 0 -13 -12 -19 -27 -12 -31 -70
-133 -87 -154 -6 -8 -21 -35 -33 -61 -12 -26 -25 -48 -29 -50 -6 -3 -34 -51
-81 -143 -9 -16 -19 -32 -23 -35 -4 -3 -12 -17 -18 -30 -25 -57 -57 -105 -69
-105 -7 0 -23 19 -36 43 -13 24 -30 51 -39 61 -9 10 -16 24 -16 32 -1 8 -11
27 -24 43 -19 22 -22 35 -16 56 7 26 49 109 60 120 6 6 27 42 49 85 9 16 19
32 22 35 3 3 21 32 39 65 52 94 60 108 80 140 10 17 31 53 45 80 15 28 33 57
41 66 8 8 14 20 14 25 0 5 13 28 28 50 31 48 58 96 59 107 1 5 12 23 25 40 13
18 30 44 37 60 8 15 18 27 23 27 4 0 8 8 8 19 0 10 7 24 15 31 9 7 13 15 10
18 -2 3 5 13 16 23 11 9 20 20 20 23 -2 17 1 24 20 45 12 12 18 25 15 28 -3 3
6 19 19 35 14 16 25 36 25 44 0 8 5 14 10 14 6 0 10 6 10 13 0 7 9 23 20 35
12 12 18 22 14 22 -3 0 4 16 15 36 12 19 19 39 16 44 -3 5 -1 11 5 15 6 4 3
16 -7 33 -41 64 -68 76 -145 63 -14 -2 -68 -66 -68 -80 0 -8 -6 -22 -14 -30
-7 -9 -25 -36 -38 -61 -14 -25 -35 -61 -46 -80 -12 -19 -26 -44 -31 -55 -5
-11 -30 -56 -56 -99 -26 -44 -51 -90 -56 -103 -5 -13 -13 -23 -19 -23 -5 0
-10 -8 -10 -18 0 -10 -4 -22 -9 -28 -5 -5 -24 -36 -42 -69 -17 -33 -38 -67
-45 -76 -8 -8 -14 -18 -14 -22 0 -5 -154 -278 -180 -317 -5 -8 -17 -31 -27
-50 -9 -19 -19 -37 -22 -40 -4 -3 -14 -21 -25 -41 -20 -41 -45 -45 -62 -11 -6
12 -18 30 -27 40 -10 10 -17 25 -17 33 0 9 -8 24 -18 35 -36 39 -66 124 -43
124 5 0 14 12 20 28 7 15 23 45 36 67 14 22 31 52 37 68 7 15 16 27 20 27 4 0
8 6 8 13 0 8 9 24 20 37 11 13 20 29 20 35 0 7 7 18 15 25 8 7 12 16 9 21 -3
5 -1 9 3 9 5 0 20 21 33 47 14 26 31 54 38 61 6 7 12 20 12 28 0 8 4 14 8 14
4 0 13 12 20 28 6 15 25 48 41 74 16 25 40 66 54 90 13 23 34 59 45 78 12 19
31 54 43 77 l21 43 -22 45 c-12 25 -26 45 -31 45 -13 0 -16 1 -49 10 -18 5
-32 5 -36 -1 -3 -5 -9 -7 -14 -4 -14 9 -71 -73 -125 -180 -9 -16 -24 -43 -35
-60 -10 -16 -29 -50 -41 -75 -13 -25 -25 -47 -29 -50 -3 -3 -11 -16 -18 -30
-17 -36 -35 -64 -47 -72 -5 -4 -6 -8 -2 -8 4 0 -3 -15 -16 -32 -13 -18 -27
-41 -30 -51 -10 -28 -117 -206 -128 -212 -14 -9 -37 13 -58 54 -23 47 -44 85
-52 91 -4 3 -21 32 -38 65 -44 83 -98 178 -108 190 -16 20 -44 75 -38 75 3 0
-3 10 -15 22 -11 12 -20 26 -20 32 0 5 -7 17 -16 27 -8 9 -16 23 -18 31 -1 7
-11 27 -22 43 -12 17 -28 44 -37 60 -28 55 -55 78 -94 80 -47 3 -77 -10 -94
-41 -7 -13 -16 -24 -21 -24 -4 0 -8 -9 -8 -20 0 -11 -6 -23 -14 -26 -8 -3 -18
-19 -21 -36 -4 -16 -13 -32 -21 -35 -8 -3 -14 -13 -14 -23 0 -9 -9 -27 -20
-40 -11 -13 -20 -29 -20 -36 0 -7 -3 -14 -7 -16 -5 -1 -18 -23 -31 -48 -41
-80 -104 -185 -116 -192 -6 -4 -8 -8 -4 -8 4 0 -7 -24 -24 -52 -17 -29 -44
-78 -61 -108 -16 -30 -37 -66 -46 -80 -10 -14 -35 -56 -56 -95 -21 -38 -44
-77 -51 -85 -7 -8 -12 -17 -12 -20 1 -3 -10 -23 -24 -45 -13 -22 -42 -71 -63
-110 -21 -38 -45 -81 -54 -95 -9 -14 -26 -43 -36 -65 -11 -22 -23 -44 -28 -50
-18 -24 -57 -86 -57 -91 0 -2 -12 -23 -26 -46 -30 -48 -79 -133 -96 -165 -20
-39 -35 -34 -67 22 -17 30 -31 59 -31 65 0 5 -3 10 -7 10 -5 0 -21 25 -37 55
-34 62 -36 52 39 180 19 33 40 69 45 80 6 11 22 38 35 60 14 22 30 52 36 68 6
15 15 27 20 27 5 0 9 5 9 11 0 7 14 35 32 63 17 28 45 76 61 106 17 30 33 57
36 60 4 3 12 16 19 30 7 14 20 39 30 55 10 17 32 55 48 85 16 30 43 76 61 103
18 26 31 47 27 47 -3 0 3 12 14 28 10 15 22 34 25 42 4 8 17 31 29 50 11 19
26 44 32 55 6 11 23 38 37 60 14 22 40 67 58 100 18 33 36 65 39 70 14 22 10
42 -16 80 -26 37 -31 40 -80 41 -60 2 -65 -4 -147 -146 -26 -47 -51 -87 -54
-90 -3 -3 -7 -11 -9 -19 -2 -8 -12 -27 -23 -43 -11 -15 -17 -28 -12 -28 4 0 3
-4 -3 -8 -6 -4 -21 -27 -35 -52 -13 -25 -26 -47 -29 -50 -3 -3 -13 -21 -23
-40 -9 -19 -26 -48 -37 -65 -11 -16 -24 -40 -30 -53 -5 -13 -24 -43 -40 -67
-17 -24 -30 -47 -30 -50 0 -8 -82 -148 -91 -155 -3 -3 -10 -16 -14 -28 -4 -13
-20 -43 -36 -66 -15 -24 -33 -54 -39 -67 -6 -13 -19 -37 -30 -54 -20 -32 -37
-61 -63 -109 -17 -32 -46 -40 -65 -19 -7 7 -12 14 -11 15 5 9 -14 48 -23 48
-6 0 -8 3 -5 6 4 4 -4 21 -16 38 -12 17 -22 33 -22 36 -1 3 -9 20 -18 38 -17
31 -17 34 0 70 9 20 38 71 63 112 25 41 51 86 58 100 6 14 16 32 22 40 5 8 33
56 61 105 28 50 60 102 70 117 11 15 19 34 19 43 0 8 4 15 9 15 5 0 14 14 21
30 7 17 16 30 21 30 5 0 9 6 9 14 0 7 9 25 20 39 11 14 20 32 20 40 0 9 4 17
8 19 5 2 25 33 45 69 40 71 43 108 13 154 -18 28 -15 27 -75 30 -34 2 -49 -2
-65 -19 -27 -27 -78 -106 -70 -106 4 0 1 -8 -7 -17 -15 -19 -25 -37 -72 -123
-17 -30 -33 -57 -36 -60 -4 -3 -19 -31 -35 -62 -16 -32 -32 -58 -36 -58 -4 0
-11 -12 -15 -27 -3 -15 -10 -30 -15 -33 -4 -3 -22 -31 -38 -62 -46 -85 -56
-101 -69 -116 -7 -7 -13 -19 -13 -25 0 -7 -11 -25 -24 -42 -20 -25 -26 -28
-40 -16 -9 7 -16 20 -16 27 0 8 -5 14 -12 14 -6 0 -8 3 -5 7 4 3 -5 21 -19 40
-14 18 -22 33 -18 33 4 0 0 8 -8 18 -9 9 -19 27 -22 40 -4 12 -12 22 -17 22
-5 0 -9 5 -9 11 0 6 -24 52 -53 102 -30 51 -57 99 -60 107 -4 8 -16 29 -27 45
-11 17 -26 44 -34 61 -8 17 -19 35 -25 38 -6 4 -11 16 -11 26 0 10 -6 23 -13
27 -12 7 -30 43 -27 52 1 2 -2 7 -7 10 -4 3 -19 23 -33 43 -14 21 -38 42 -54
48 -33 11 -31 11 -68 0z"/>
</g>
</svg>
