<?xml version="1.0" standalone="no"?>
<!DOCTYPE svg PUBLIC "-//W3C//DTD SVG 20010904//EN"
 "http://www.w3.org/TR/2001/REC-SVG-20010904/DTD/svg10.dtd">
<svg version="1.0" xmlns="http://www.w3.org/2000/svg"
 width="512.000000pt" height="512.000000pt" viewBox="0 0 512.000000 512.000000"
 preserveAspectRatio="xMidYMid meet">
<metadata>
Created by potrace 1.11, written by Peter Selinger 2001-2013
</metadata>
<g transform="translate(0.000000,512.000000) scale(0.100000,-0.100000)"
fill="#000000" stroke="none">
<path d="M240 3349 c0 -5 -6 -9 -12 -9 -34 -1 -50 -29 -52 -89 -1 -51 2 -65
22 -86 12 -14 19 -25 15 -25 -4 0 -3 -4 2 -8 11 -8 28 -34 50 -77 8 -16 24
-43 34 -60 11 -16 32 -54 48 -82 15 -29 31 -53 35 -53 4 0 8 -4 8 -10 0 -5 14
-33 31 -62 18 -29 40 -68 50 -85 46 -80 109 -189 180 -308 12 -22 27 -43 32
-46 5 -3 7 -8 6 -10 -5 -6 100 -187 112 -194 5 -4 9 -13 9 -22 0 -9 9 -24 21
-34 11 -9 20 -19 19 -21 -2 -4 23 -61 30 -68 3 -3 11 -16 18 -29 8 -13 23 -40
34 -60 12 -20 31 -54 43 -76 11 -22 33 -59 48 -82 15 -24 27 -47 27 -52 0 -5
7 -14 15 -21 8 -7 12 -16 9 -21 -3 -5 -1 -9 5 -9 5 0 12 -8 16 -19 3 -10 14
-29 25 -41 15 -18 27 -21 66 -18 57 4 88 37 86 91 -1 29 -32 99 -52 117 -3 3
-14 23 -25 45 -11 22 -28 48 -37 59 -10 10 -15 23 -12 27 2 4 0 10 -5 13 -5 3
-41 63 -81 133 -39 71 -79 142 -89 158 -10 17 -27 46 -38 65 -11 19 -32 55
-47 80 -15 25 -29 53 -33 63 -3 9 -9 17 -14 17 -5 0 -9 6 -9 13 0 7 -15 37
-34 67 -19 30 -32 58 -30 62 3 5 1 8 -3 8 -10 0 -49 62 -45 73 1 4 -3 7 -8 7
-6 0 -10 6 -10 14 0 7 -7 19 -15 26 -8 7 -13 16 -10 20 3 4 -2 13 -10 20 -8 7
-15 17 -15 22 0 6 -10 24 -22 41 -13 18 -22 33 -20 35 3 3 -30 55 -41 63 -5 3
-8 9 -8 13 1 10 -12 41 -19 46 -7 5 -17 23 -56 100 -10 19 -24 41 -30 48 -7 6
-16 22 -20 35 -4 12 -11 25 -16 28 -5 3 -10 12 -12 20 -2 14 -35 70 -47 79 -3
3 -9 15 -13 27 -8 26 -106 65 -106 42z"/>
<path d="M684 3337 c-24 -10 -54 -51 -59 -78 -5 -22 31 -99 52 -112 7 -5 11
-12 8 -16 -2 -5 2 -14 10 -21 8 -7 15 -16 15 -21 0 -7 37 -71 78 -134 7 -11
15 -28 18 -37 4 -10 10 -18 15 -18 5 0 9 -9 9 -20 0 -11 4 -20 8 -20 5 0 15
-12 23 -27 8 -15 35 -64 60 -108 25 -44 52 -91 60 -105 8 -14 16 -27 19 -30 3
-3 16 -25 29 -50 14 -25 27 -47 30 -50 4 -3 19 -30 35 -60 16 -30 34 -58 39
-61 5 -3 9 -10 9 -15 1 -9 13 -32 36 -69 7 -11 18 -32 25 -47 6 -16 15 -28 20
-28 4 0 5 -4 2 -10 -3 -5 -2 -10 2 -10 5 0 17 -17 28 -37 11 -21 32 -57 47
-80 15 -23 28 -44 28 -47 0 -3 18 -35 40 -71 22 -36 40 -67 40 -69 0 -3 20
-39 45 -80 25 -42 45 -81 45 -86 0 -6 4 -10 8 -10 5 0 16 -17 25 -39 49 -111
142 -136 188 -50 13 25 9 79 -7 99 -19 26 -144 241 -144 250 0 5 -4 10 -9 12
-5 2 -11 10 -13 18 -2 8 -12 29 -24 45 -11 17 -28 46 -37 65 -20 40 -39 73
-48 80 -3 3 -22 34 -41 70 -20 36 -53 94 -73 130 -21 36 -47 83 -59 105 -11
22 -24 42 -27 45 -4 3 -21 32 -38 65 -18 33 -42 76 -53 95 -11 19 -31 55 -45
80 -13 25 -33 59 -43 75 -25 41 -58 100 -89 160 -14 28 -29 52 -33 53 -5 2 -8
10 -8 18 0 8 -4 14 -8 14 -4 0 -13 12 -20 28 -17 37 -41 82 -60 112 -9 14 -15
28 -14 32 3 10 -41 53 -65 63 -25 12 -57 12 -79 2z"/>
<path d="M1163 3339 c-13 -5 -23 -6 -23 -2 0 3 -9 -4 -20 -17 -11 -13 -20 -29
-20 -37 0 -7 -4 -13 -9 -13 -11 0 -3 -39 12 -57 5 -7 6 -13 2 -13 -5 0 -1 -8
7 -17 8 -10 28 -43 44 -73 16 -30 31 -57 34 -60 3 -3 26 -39 50 -80 66 -110
68 -113 82 -140 7 -14 25 -44 40 -67 15 -23 28 -44 28 -46 0 -5 66 -116 98
-167 9 -14 17 -31 18 -39 2 -8 7 -17 11 -20 5 -3 23 -31 40 -61 17 -30 40 -71
51 -90 11 -19 43 -75 72 -125 29 -49 59 -102 67 -117 8 -15 19 -30 24 -33 5
-4 7 -11 4 -16 -4 -5 -1 -9 4 -9 6 0 11 -5 11 -10 0 -6 16 -36 35 -66 19 -30
35 -58 35 -63 0 -5 6 -16 13 -23 7 -7 26 -39 42 -70 16 -32 33 -58 38 -58 5 0
7 -6 4 -13 -3 -7 4 -19 15 -26 11 -7 18 -15 15 -18 -8 -7 40 -83 66 -105 50
-44 116 -5 167 100 13 26 26 49 29 52 6 5 33 54 59 105 8 17 21 37 28 45 7 8
12 17 12 20 -1 3 11 24 26 48 15 24 31 53 37 65 5 12 18 36 29 52 11 17 25 42
31 58 6 15 15 27 20 27 5 0 9 9 9 20 0 11 4 20 8 20 5 0 16 16 25 36 18 38 34
40 51 8 6 -10 19 -31 29 -46 10 -16 15 -28 12 -28 -4 0 1 -7 9 -16 9 -8 16
-21 16 -29 0 -7 4 -15 8 -17 9 -3 62 -92 87 -145 8 -18 20 -33 26 -33 5 0 9
-6 7 -12 -2 -11 8 -30 59 -113 7 -11 27 -48 45 -82 18 -35 36 -63 41 -63 4 0
6 -4 3 -9 -3 -4 10 -24 28 -43 24 -24 42 -34 63 -34 45 1 79 29 86 72 5 32 -1
48 -51 133 -31 53 -63 108 -71 124 -7 15 -18 27 -23 27 -5 0 -7 4 -4 9 3 5 -2
19 -12 32 -10 13 -36 56 -57 94 -21 39 -41 72 -44 75 -4 3 -13 18 -21 34 -29
56 -35 66 -42 66 -5 0 -8 11 -8 24 0 13 -7 26 -15 30 -8 3 -15 12 -15 19 0 8
-9 22 -20 32 -11 10 -17 22 -14 26 3 5 -4 19 -15 31 -26 27 -27 72 -2 106 10
15 20 32 22 37 11 29 72 125 79 125 9 0 38 -43 42 -62 2 -7 5 -15 8 -18 3 -3
25 -39 49 -80 25 -41 57 -96 73 -121 15 -25 28 -49 28 -53 0 -4 13 -26 28 -49
16 -23 36 -58 46 -77 9 -19 26 -48 36 -65 11 -16 26 -43 34 -60 9 -16 20 -37
25 -45 38 -57 91 -154 91 -165 0 -7 4 -15 8 -17 8 -3 31 -42 98 -167 43 -80
85 -121 122 -121 62 0 104 67 81 127 -6 15 -13 30 -17 33 -4 3 -20 30 -36 60
-16 30 -40 70 -53 88 -13 17 -22 32 -19 32 3 0 -15 31 -39 69 -25 38 -49 80
-55 93 -6 12 -22 41 -36 63 -13 22 -27 48 -31 58 -3 9 -9 17 -14 17 -5 0 -9 5
-9 10 0 6 -16 35 -35 65 -19 30 -32 55 -28 55 3 0 -1 8 -9 18 -9 9 -24 33 -33
52 -10 19 -21 37 -24 40 -3 3 -14 21 -25 40 -36 67 -69 125 -85 150 -10 14
-22 36 -29 50 -7 14 -26 48 -42 75 -53 88 -55 93 -37 113 10 10 14 22 10 25
-3 4 -1 7 6 7 7 0 9 5 6 10 -3 6 -1 10 4 10 11 0 38 47 62 103 15 38 39 31 64
-18 11 -21 23 -44 28 -50 31 -42 57 -88 57 -100 0 -8 4 -15 9 -15 5 0 14 -13
21 -30 7 -16 17 -30 23 -30 6 0 7 -3 4 -6 -4 -4 2 -19 12 -33 10 -14 21 -33
25 -41 3 -8 20 -37 36 -65 17 -27 35 -59 40 -70 6 -11 19 -33 30 -50 10 -16
27 -46 37 -65 9 -19 23 -41 29 -48 7 -6 16 -22 19 -33 4 -12 17 -36 29 -54 12
-18 35 -58 51 -89 15 -31 32 -56 37 -56 4 0 8 -8 8 -17 0 -10 9 -29 20 -43 11
-14 20 -31 20 -37 0 -7 4 -13 8 -13 4 0 13 -12 19 -27 7 -16 24 -48 39 -73 15
-25 40 -70 57 -100 16 -30 34 -61 40 -67 5 -7 6 -13 3 -13 -4 0 2 -10 14 -22
11 -12 20 -25 20 -30 0 -13 82 -142 99 -155 9 -7 33 -13 53 -13 41 0 63 18 94
75 10 19 22 35 26 35 5 0 8 8 8 19 0 10 7 24 15 31 8 7 15 19 15 26 0 8 4 14
8 14 4 0 14 16 21 35 7 19 17 35 22 35 6 0 7 5 4 10 -3 6 -1 10 6 10 7 0 9 3
6 7 -4 3 3 17 15 31 13 13 23 27 22 30 -1 4 9 23 21 42 12 19 24 43 28 53 3 9
11 17 17 17 6 0 9 4 6 9 -3 5 2 19 12 32 10 13 23 35 30 49 6 14 16 32 22 40
29 43 130 223 130 231 0 5 5 9 11 9 5 0 8 4 5 9 -3 5 0 14 8 20 7 6 21 29 31
51 10 22 22 40 27 40 4 0 8 4 8 9 0 9 49 98 91 166 10 17 28 48 40 70 12 22
28 48 37 58 8 9 12 17 8 17 -4 0 2 12 13 26 12 15 21 33 21 40 0 8 4 14 8 14
4 0 18 19 30 43 13 23 36 65 53 92 16 28 32 58 35 68 4 9 10 17 15 17 5 0 9 7
9 15 0 7 6 18 13 22 8 5 12 29 12 63 0 50 -3 57 -30 75 -62 42 -123 19 -161
-62 -9 -18 -20 -33 -25 -33 -5 0 -9 -7 -9 -16 0 -9 -9 -27 -20 -41 -11 -14
-20 -31 -20 -38 0 -7 -7 -18 -15 -25 -8 -7 -12 -16 -9 -21 3 -5 1 -9 -5 -9 -5
0 -13 -10 -17 -22 -3 -13 -15 -31 -25 -41 -11 -10 -17 -22 -14 -26 2 -5 -2
-14 -10 -21 -8 -7 -15 -16 -15 -21 0 -5 -12 -28 -27 -52 -14 -23 -25 -42 -22
-42 2 0 -6 -14 -19 -32 -12 -17 -22 -35 -22 -39 0 -4 -6 -15 -14 -23 -11 -13
-61 -102 -101 -181 -5 -11 -13 -20 -18 -20 -4 0 -5 -4 -2 -10 3 -5 2 -10 -3
-10 -5 0 -17 -18 -27 -40 -10 -22 -24 -45 -31 -51 -8 -6 -12 -15 -9 -19 2 -4
-5 -16 -15 -28 -11 -12 -20 -28 -20 -35 0 -8 -7 -20 -15 -27 -8 -7 -15 -18
-15 -25 0 -7 -7 -18 -15 -25 -8 -7 -13 -16 -10 -20 2 -4 -4 -15 -15 -25 -11
-10 -20 -22 -20 -26 0 -7 -20 -43 -94 -169 -15 -25 -29 -53 -33 -62 -3 -10 -9
-18 -13 -18 -4 0 -11 -11 -14 -24 -3 -14 -12 -31 -19 -38 -6 -8 -17 -23 -23
-33 -6 -11 -15 -19 -19 -18 -8 1 -55 76 -72 113 -3 8 -15 26 -25 39 -10 13
-18 32 -18 43 0 20 65 144 87 166 7 7 13 18 13 23 0 8 35 70 79 139 8 14 15
28 14 32 -2 3 4 12 12 18 8 7 15 16 15 20 0 4 18 37 40 71 22 35 44 74 50 87
5 12 18 35 28 50 35 50 56 87 58 100 2 8 10 22 18 31 9 10 16 20 16 24 0 3 12
25 28 49 41 65 50 80 68 116 9 17 21 32 26 32 5 0 7 4 4 9 -3 4 6 23 19 41 14
19 25 38 25 44 0 5 6 17 14 25 28 32 59 97 58 124 -1 29 -38 79 -63 86 -32 8
-72 1 -90 -15 -18 -16 -89 -134 -91 -151 0 -5 -9 -19 -19 -32 -11 -13 -19 -29
-19 -37 0 -7 -4 -14 -9 -16 -5 -1 -21 -25 -35 -53 -15 -27 -40 -72 -56 -100
-17 -27 -43 -75 -60 -105 -17 -30 -46 -82 -65 -115 -20 -33 -40 -69 -45 -80
-6 -11 -19 -33 -30 -50 -11 -16 -25 -41 -30 -55 -6 -13 -14 -27 -18 -30 -4 -3
-13 -16 -19 -30 -7 -14 -28 -52 -47 -85 -20 -33 -43 -74 -52 -92 -23 -46 -40
-48 -69 -5 -14 20 -25 41 -25 47 0 6 -8 20 -18 31 -10 10 -26 36 -35 57 -18
36 -18 38 2 66 12 16 21 31 21 34 0 2 28 53 63 113 35 60 70 120 78 134 8 14
16 27 19 30 3 3 11 16 18 30 6 14 16 32 22 40 33 49 160 272 160 280 0 5 4 10
8 10 11 0 42 66 42 90 0 20 -16 55 -35 75 -5 6 -31 10 -58 10 -38 -1 -51 -6
-65 -25 -23 -34 -82 -131 -82 -137 0 -3 -9 -18 -21 -34 -11 -16 -17 -29 -12
-29 4 0 3 -4 -3 -8 -6 -4 -24 -32 -40 -62 -16 -30 -33 -58 -39 -62 -7 -5 -7
-8 0 -8 7 0 7 -3 0 -8 -12 -9 -44 -61 -52 -84 -3 -10 -9 -18 -13 -18 -5 0 -14
-16 -20 -35 -6 -19 -16 -35 -21 -35 -5 0 -9 -7 -9 -15 0 -12 -24 -54 -62 -108
-13 -18 -48 -15 -48 4 0 5 -11 26 -23 47 -13 20 -37 60 -52 87 -54 96 -102
180 -130 230 -15 28 -31 55 -35 60 -4 6 -19 30 -32 55 -93 168 -105 182 -158
185 -34 2 -63 -19 -86 -60 -10 -19 -21 -35 -25 -35 -6 0 -12 -15 -23 -50 -1
-3 -6 -12 -11 -20 -18 -27 -30 -48 -65 -114 -19 -36 -38 -66 -42 -66 -5 0 -8
-7 -8 -15 0 -8 -4 -15 -10 -15 -5 0 -10 -8 -10 -18 0 -10 -5 -23 -11 -29 -12
-12 -23 -31 -56 -93 -55 -103 -86 -156 -97 -165 -6 -6 -12 -17 -14 -25 -2 -8
-9 -22 -17 -30 -7 -8 -16 -25 -19 -37 -4 -13 -12 -23 -18 -23 -6 0 -9 -3 -5
-6 3 -3 -9 -29 -26 -58 -53 -86 -55 -89 -88 -151 -17 -33 -40 -71 -50 -84 -11
-13 -19 -30 -19 -37 0 -8 -4 -14 -9 -14 -5 0 -13 -10 -17 -22 -4 -13 -20 -42
-35 -65 -16 -23 -29 -44 -29 -47 0 -3 -25 -46 -55 -97 -30 -50 -55 -95 -55
-100 0 -5 -5 -9 -11 -9 -13 0 -40 26 -33 32 2 3 -2 11 -11 18 -8 7 -15 16 -15
21 0 12 -51 91 -65 101 -6 5 -6 8 -1 8 6 0 5 5 -1 11 -11 11 4 47 65 149 30
50 126 223 131 235 2 5 7 12 11 15 7 6 100 167 100 174 0 2 16 28 35 57 19 30
35 59 35 66 0 7 3 13 8 13 8 0 23 26 42 73 7 15 16 27 21 27 5 0 9 9 9 20 0
11 4 20 9 20 5 0 13 10 17 23 3 12 13 30 22 40 8 9 11 17 6 17 -5 0 -4 4 2 8
13 8 97 147 96 159 0 4 6 12 14 16 8 4 14 15 14 23 0 9 9 27 20 41 11 14 18
28 17 32 -29 63 -44 81 -67 82 -78 5 -92 -4 -130 -78 -13 -26 -37 -67 -52 -90
-15 -23 -28 -45 -28 -48 0 -4 -9 -19 -20 -35 -11 -15 -17 -30 -13 -33 3 -4 -2
-9 -11 -13 -9 -3 -16 -14 -16 -24 0 -11 -4 -21 -9 -24 -5 -3 -18 -23 -29 -43
-44 -85 -58 -108 -74 -126 -10 -11 -15 -23 -13 -27 3 -4 -2 -13 -10 -20 -8 -7
-15 -18 -15 -25 0 -7 -7 -18 -15 -25 -8 -7 -12 -16 -10 -21 3 -4 -1 -11 -8
-16 -7 -4 -19 -23 -26 -40 -8 -18 -17 -33 -22 -33 -5 0 -9 -9 -9 -19 0 -10 -7
-22 -16 -25 -8 -3 -13 -10 -10 -15 3 -5 -2 -19 -12 -32 -22 -31 -34 -52 -68
-114 -15 -27 -29 -52 -33 -55 -3 -3 -15 -23 -26 -45 -11 -22 -24 -43 -29 -47
-11 -7 -51 11 -42 19 3 3 -4 17 -14 31 -11 13 -20 31 -20 38 0 8 -3 14 -8 14
-11 0 -52 83 -49 100 1 9 13 33 25 53 12 21 22 42 22 48 0 5 4 9 9 9 5 0 16
18 25 40 9 22 21 40 28 40 6 0 9 3 5 6 -3 3 5 24 19 45 13 21 24 41 24 44 0 3
15 29 33 58 18 29 38 63 45 77 7 14 21 39 32 55 36 56 45 72 70 121 14 27 27
51 30 54 21 19 64 110 65 139 5 73 -90 117 -140 66 -20 -19 -67 -93 -93 -145
-7 -14 -26 -47 -42 -75 -17 -27 -33 -57 -37 -65 -3 -8 -13 -23 -21 -32 -8 -10
-12 -18 -8 -18 4 0 -3 -15 -16 -32 -13 -18 -30 -46 -39 -63 -9 -16 -26 -46
-38 -65 -11 -19 -26 -46 -33 -60 -7 -14 -15 -27 -18 -30 -3 -3 -14 -22 -25
-42 -11 -21 -25 -38 -31 -38 -10 0 -59 78 -134 215 -27 48 -88 154 -101 175
-5 8 -12 23 -15 33 -4 9 -10 17 -15 17 -5 0 -9 6 -9 13 0 7 -8 24 -17 37 -10
14 -18 31 -20 38 -1 8 -8 21 -15 30 -7 10 -22 33 -33 52 -37 67 -80 95 -122
79z"/>
</g>
</svg>
