<svg width="21" height="25" viewBox="0 0 21 25" fill="none" xmlns="http://www.w3.org/2000/svg">
<path d="M5.50245 24.5147C5.78877 24.814 6.26352 24.8246 6.56285 24.5383L11.4407 19.8725C11.74 19.5862 11.7506 19.1115 11.4642 18.8121C11.1779 18.5128 10.7032 18.5023 10.4039 18.7886L6.068 22.9359L1.92066 18.6C1.63435 18.3007 1.15959 18.2902 0.860265 18.5765C0.560937 18.8628 0.550386 19.3376 0.8367 19.6369L5.50245 24.5147ZM5.62787 8.98334L5.29462 23.9796L6.79425 24.013L7.1275 9.01666L5.62787 8.98334Z" fill="#AAAAAA"/>
<path d="M15.908 0.469669C15.6151 0.176776 15.1402 0.176776 14.8474 0.469669L10.0744 5.24264C9.78149 5.53553 9.78149 6.01041 10.0744 6.3033C10.3673 6.59619 10.8422 6.59619 11.135 6.3033L15.3777 2.06066L19.6203 6.3033C19.9132 6.59619 20.3881 6.59619 20.681 6.3033C20.9739 6.01041 20.9739 5.53553 20.681 5.24264L15.908 0.469669ZM16.1277 16L16.1277 0.999999L14.6277 0.999999L14.6277 16L16.1277 16Z" fill="#AAAAAA"/>
</svg>
